<?xml version="1.0" encoding="utf-8"?>
<!-- Generator: Adobe Illustrator 19.1.0, SVG Export Plug-In . SVG Version: 6.00 Build 0)  -->
<svg version="1.1" id="Layer_1" xmlns="http://www.w3.org/2000/svg" xmlns:xlink="http://www.w3.org/1999/xlink" x="0px" y="0px"
	 viewBox="0 0 446 415" style="enable-background:new 0 0 446 415;" xml:space="preserve">
<style type="text/css">
	.st0{fill:url(#SVGID_1_);stroke:#FFFFFF;stroke-miterlimit:10;}
	.st1{opacity:0.74;}
	.st2{fill:#FFFFFF;}
	.st3{fill:#4690E8;}
	.st4{fill:#A2A2E0;}
</style>
<g class="st1">
	<path class="st2" d="M153.9,236.1c6.9-0.6,6.7,40,8.6,48.6c1.9,8.6,14.3,25.7,12.4,29.5c-1.9,3.8-21.9,7.6-28.6,8.6
		c-6.7,1-30.5-4.8-51.4,0s-38.1,14.3-47.6,26.7s-32.4,64.8-39,56.2c-6.7-8.6,30.5-90.5,32.4-97.1c1.9-6.7,46.7-31.4,55.2-36.2
		S143.4,237.1,153.9,236.1z"/>
	<path class="st2" d="M310.1,251.4c-8.6,1.5,15.2,78.1,18.1,82.9c2.9,4.8,45.7-3.8,60,5.7c14.3,9.5,32.4,33.3,37.1,41
		c4.8,7.6,10.4,24.8,14.3,24.8c3.8,0-2.8-45.7-11.4-59c-8.6-13.3-35.4-65.7-53.4-71.4C356.8,269.5,326.3,248.5,310.1,251.4z"/>
	<path class="st2" d="M271,201.8c-0.5,7.8,51.4,25.7,68.6,34.3s56.2,45.7,62.9,36.2c6.7-9.5-29.3-38.4-53.7-50.6
		C324.4,209.5,272,187.6,271,201.8z"/>
	<path class="st2" d="M271,163.8c-5.6,12.3,30.5,17.1,37.2,21c6.6,3.8,51.4,24.9,54.3,12.5s-21.9-20.1-41.9-26.8
		C300.6,163.8,275.8,153.3,271,163.8z"/>
	<path class="st2" d="M266.3,138c-5.8,8.8,49.5,11.4,62.9,17.1c13.3,5.7,37.3,30,45.3,25s-21.7-38.3-37.3-42.2
		S273.9,126.6,266.3,138z"/>
	<path class="st2" d="M250.1,110.4c-3.3,10.9,48.2,8.6,66.5,10.5s44.9,26.7,50.7,19s-35.6-32.4-50.7-36.2S252.9,100.9,250.1,110.4z"
		/>
	<path class="st2" d="M249.9,82.8c-0.7,5.7,38.3,6.7,58.3,7.6c20,1,66.6,30.5,73.3,21.9s-26.7-34.3-48.6-39
		C311,68.5,251.7,69.5,249.9,82.8z"/>
	<path class="st2" d="M270.5,16.1c-8,1-8,10.5-10.8,18.1s-11.7,11.4-9.7,19c2.1,7.6,16.4,7.6,36.4,6.7c20-1,35.2-2,41.9,0.4
		c6.7,2.4,17.4,14.3,20.6,10.3c3.2-4.1-9.3-10.7-11.6-13.6c-2.3-2.9-14-19-21-24.8c-7-5.7-6.4-4.8-16.7-9.5S270.5,16.1,270.5,16.1z"
		/>
	<path class="st2" d="M337.2,6.6c0,0-0.4,8.6,6.3,9.5c6.7,1,29.5-3.8,32.4,3.8s3.6,11.4,6.6,15.2s-2.9,27.6,0,28.6
		c2.9,1,30.6,3.8,37.2-3.8s11.4-16.2,8.6-20c-2.9-3.8-26.7-3.4-33.3-4.1c-6.7-0.7-12.6-7.3-12.5-10.2s1,2.9,12.5,2.9
		c11.4,0,44.7,6.7,44.7-1.9s0-20,0-20H337.2z"/>
	<path class="st2" d="M169.1,16.1c-19,1.6-19,13.7-27.6,19.7s-20,7.9-14.3,13.6s18.1,8.6,27.6,9.5c9.5,1,47.6,5.7,47.6,0
		s0-13.2-4.8-15.2s-4.8-9.6-9.5-14.3S174.8,15.7,169.1,16.1z"/>
	<path class="st2" d="M202.5,87.6c-2.5-10.2-7.6-15.9-16.2-16.1c-8.6-0.1-56.4-0.8-60.6,0s4.4-9.9-10.8-6.4c-15.2,3.4,1,6,0,10.9
		c-1,4.9-13.3,15.3-18.1,16.3c-4.8,1-30.5,19.4-25.7,21.6c4.8,2.3,47.4-22.2,54.7-24.7c7.3-2.5,44.4,1.2,57.7,3.1
		C196.8,94.2,204.2,94.5,202.5,87.6z"/>
	<path class="st2" d="M202.5,114c3.2-8.9-10.5-7.4-18.1-8.4c-7.6-1-47.6-2.9-54.3,0c-6.7,2.9-38.1,14.3-46.7,21.9
		c-8.6,7.6-3.8,16.2,0,13.8c3.8-2.4,30.3-15.4,42.3-18.4s58.7,2.1,65.3,0C197.7,120.9,197.7,127.2,202.5,114z"/>
	<path class="st2" d="M65.3,180.2c-0.7,6.6,39.8-17.7,60.4-20.9s66.3,3.1,67.3-2.9c1-6,5.7-11.7,0-18.4c-5.7-6.7-63.8-2-76.2,3.8
		C104.4,147.6,66.3,170.9,65.3,180.2z"/>
	<path class="st2" d="M52,221.7c1.7,9.5,46.7-18.7,61-24.5c14.3-5.8,73.3-0.5,75.2-17c1.9-16.4-55.2-12.6-73.3-4.1
		S50.1,211.1,52,221.7z"/>
	<path class="st2" d="M32.9,285.7c5.7,5.7,41-21,52.4-27.6c11.4-6.7,35.7-29.8,55.5-34.4c19.8-4.6,33.1-9.4,30.3-17.5
		c-2.9-8.1-19.4-7.7-34.5-5.1c-15.1,2.7-32.8,12.9-45.4,20.6c-12.6,7.8-36.4,35.4-44,41.1C39.6,268.5,32.9,285.7,32.9,285.7z"/>
	<path class="st2" d="M102.2,6.6c0,0,4.1,9.5-5.4,9.5c-9.5,0-16.3,1.9-18.1,6.7s-3,9.9-8.2,13c-5.1,3.1,4.2,12.7,0,16.5
		c-4.2,3.8-5.1,10.3-11.8,9.4c-6.7-0.9,0.8-11.3-6.7-13.2s-27.6,6.7-32.3,1s2.9-7.6,0-15.2s-13-2.8-12.2-8.6s0.8-19,0.8-19H102.2z"
		/>
</g>
</svg>
